<?xml version="1.0" standalone="no"?>
<!DOCTYPE svg PUBLIC "-//W3C//DTD SVG 20010904//EN"
 "http://www.w3.org/TR/2001/REC-SVG-20010904/DTD/svg10.dtd">
<svg version="1.0" xmlns="http://www.w3.org/2000/svg"
 width="128.000000pt" height="128.000000pt" viewBox="0 0 128.000000 128.000000"
 preserveAspectRatio="xMidYMid meet">
<metadata>
Created by potrace 1.15, written by Peter Selinger 2001-2017
</metadata>
<g transform="translate(0.000000,128.000000) scale(0.100000,-0.100000)"
fill="#000000" stroke="none">
<path d="M880 1080 l0 -40 -360 0 -360 0 0 -40 0 -40 440 0 440 0 0 40 0 40
-40 0 -40 0 0 40 0 40 -40 0 -40 0 0 -40z"/>
<path d="M1040 360 l0 -40 -520 0 -520 0 0 -40 0 -40 600 0 600 0 0 40 0 40
-40 0 -40 0 0 40 0 40 -40 0 -40 0 0 -40z"/>
</g>
</svg>
