<?xml version="1.0" standalone="no"?>
<!DOCTYPE svg PUBLIC "-//W3C//DTD SVG 20010904//EN"
 "http://www.w3.org/TR/2001/REC-SVG-20010904/DTD/svg10.dtd">
<svg version="1.0" xmlns="http://www.w3.org/2000/svg"
 width="128.000000pt" height="128.000000pt" viewBox="0 0 128.000000 128.000000"
 preserveAspectRatio="xMidYMid meet">
<metadata>
Created by potrace 1.15, written by Peter Selinger 2001-2017
</metadata>
<g transform="translate(0.000000,128.000000) scale(0.100000,-0.100000)"
fill="#000000" stroke="none">
<path d="M1040 1160 l0 -40 -480 0 -480 0 0 -520 0 -520 40 0 40 0 0 40 0 40
440 0 440 0 0 -40 0 -40 40 0 40 0 0 480 0 480 40 0 40 0 0 40 0 40 -40 0 -40
0 0 40 0 40 -40 0 -40 0 0 -40z m-640 -400 l0 -280 40 0 40 0 0 280 0 280 120
0 120 0 0 -240 0 -240 40 0 40 0 0 240 0 240 120 0 120 0 0 -240 0 -240 -120
0 -120 0 0 -40 0 -40 120 0 120 0 0 -120 0 -120 -440 0 -440 0 0 400 0 400
120 0 120 0 0 -280z"/>
<path d="M320 440 l0 -40 -40 0 -40 0 0 -40 0 -40 40 0 40 0 0 40 0 40 40 0
40 0 0 40 0 40 -40 0 -40 0 0 -40z"/>
</g>
</svg>
